<svg xmlns="http://www.w3.org/2000/svg" xmlns:xlink="http://www.w3.org/1999/xlink" width="400" zoomAndPan="magnify" viewBox="0 0 300 74.999997" height="100" preserveAspectRatio="xMidYMid meet" version="1.0"><defs><g/><clipPath id="35fb714001"><rect x="0" width="161" y="0" height="61"/></clipPath><clipPath id="d584c66c55"><rect x="0" width="116" y="0" height="62"/></clipPath><clipPath id="95c7621b4a"><path d="M 3 0 L 60 0 L 60 45 L 3 45 Z M 3 0 " clip-rule="nonzero"/></clipPath><clipPath id="de7574083d"><path d="M 51.703125 -11.546875 L 68.488281 15.109375 L 8.199219 53.078125 L -8.585938 26.425781 Z M 51.703125 -11.546875 " clip-rule="nonzero"/></clipPath><clipPath id="e2d86b5f2a"><path d="M 51.703125 -11.546875 L 68.488281 15.109375 L 8.199219 53.078125 L -8.585938 26.425781 Z M 51.703125 -11.546875 " clip-rule="nonzero"/></clipPath></defs><g transform="matrix(1, 0, 0, 1, 15, 14)"><g clip-path="url(#35fb714001)"><g fill="#f57433" fill-opacity="1"><g transform="translate(0.457652, 52.895537)"><g><path d="M 4.234375 -2 L 4.171875 -22.875 L 4.0625 -23.9375 L 4.015625 -25.15625 L 4.171875 -27.21875 L 4.0625 -28.34375 L 4.171875 -29.390625 L 4.171875 -37.1875 L 4.671875 -38.40625 L 5.84375 -38.859375 L 6.90625 -39.03125 L 9.125 -38.796875 L 10.25 -39.03125 L 12.421875 -39.03125 L 13.53125 -38.359375 L 14.078125 -37.140625 L 14.03125 -36.078125 L 14.203125 -32.90625 L 14.078125 -30.671875 L 14.203125 -29.34375 L 14.140625 -10.46875 L 14.59375 -9.359375 L 15.703125 -8.90625 L 16.875 -9.015625 L 19.046875 -8.90625 L 20.046875 -9.078125 L 21.15625 -8.859375 L 23.4375 -8.90625 L 24.609375 -8.734375 L 25.671875 -8.96875 L 26.828125 -9.078125 L 27.84375 -8.40625 L 28.34375 -6.734375 L 28.390625 -2.234375 L 27.78125 -0.5 L 26.71875 0.0625 L 15.703125 0 L 14.46875 0.109375 L 13.421875 -0.0625 L 11.296875 0.0625 L 9.125 -0.0625 L 6.796875 0.109375 L 5.671875 0 L 4.625 -0.5625 Z M 4.234375 -2 "/></g></g></g><g fill="#f57433" fill-opacity="1"><g transform="translate(29.065876, 52.895537)"><g><path d="M 2.671875 -1.609375 L 2.671875 -5.90625 L 2.78125 -6.953125 L 3.453125 -8.015625 L 7.125 -9.1875 L 7.6875 -10.40625 L 7.796875 -12.578125 L 7.578125 -14.96875 L 7.84375 -16.09375 L 7.625 -18.265625 L 7.734375 -19.375 L 7.796875 -21.65625 L 7.625 -22.9375 L 7.578125 -23.890625 L 7.734375 -28.609375 L 7.015625 -29.625 L 3.625 -30.78125 L 3.0625 -31.84375 L 3.0625 -32.90625 L 2.953125 -34.015625 L 2.953125 -35.234375 L 3.0625 -36.1875 L 3.0625 -37.25 L 3.671875 -38.40625 L 4.90625 -38.96875 L 7.078125 -38.859375 L 8.125 -38.921875 L 11.53125 -38.859375 L 12.75 -38.96875 L 19.8125 -38.921875 L 21.59375 -38.40625 L 22.046875 -37.296875 L 22.15625 -36.1875 L 22.046875 -35.1875 L 22.046875 -31.90625 L 21.4375 -30.84375 L 20.375 -30.234375 L 19.15625 -30.171875 L 18.09375 -29.5625 L 17.484375 -28.5625 L 17.484375 -26.21875 L 17.59375 -25.046875 L 17.484375 -23.9375 L 17.59375 -22.875 L 17.484375 -21.15625 L 17.59375 -19.484375 L 17.375 -17.140625 L 17.59375 -14.921875 L 17.484375 -10.359375 L 18.09375 -9.234375 L 21.828125 -8.078125 L 22.609375 -7.125 L 22.4375 -3.734375 L 22.546875 -2.734375 L 22.546875 -1.5 L 21.9375 -0.5 L 20.875 0.0625 L 4.34375 -0.0625 L 3.234375 -0.453125 Z M 2.671875 -1.609375 "/></g></g></g><g fill="#f57433" fill-opacity="1"><g transform="translate(52.998788, 52.895537)"><g><path d="M 4.28125 -1.671875 L 4.125 -2.78125 L 4.234375 -3.78125 L 4.171875 -4.90625 L 4.28125 -6.125 L 4.015625 -8.34375 L 4.171875 -10.578125 L 4.125 -11.75 L 4.28125 -12.75 L 4.171875 -26.109375 L 4.015625 -27.28125 L 4.28125 -29.5 L 4.125 -30.625 L 4.0625 -31.671875 L 4.234375 -35.015625 L 4.125 -36.125 L 4.125 -37.296875 L 4.90625 -38.296875 L 5.796875 -39.03125 L 10.296875 -38.921875 L 11.40625 -39.03125 L 12.578125 -38.921875 L 13.578125 -38.359375 L 14.140625 -37.140625 L 14.203125 -36.015625 L 14.359375 -34.96875 L 14.203125 -26.890625 L 14.359375 -25.890625 L 14.3125 -24.71875 L 15.3125 -24.109375 L 16.640625 -24.15625 L 19.09375 -24.65625 L 20.046875 -25.109375 L 21.046875 -25.71875 L 21.875 -26.4375 L 22.546875 -27.328125 L 23.265625 -28.171875 L 23.71875 -29.234375 L 24.265625 -31.453125 L 24.546875 -33.796875 L 24.390625 -37.1875 L 25 -38.359375 L 26.328125 -39.03125 L 27.953125 -38.859375 L 33.015625 -39.03125 L 34.1875 -38.40625 L 34.625 -37.140625 L 34.6875 -34.90625 L 34.453125 -33.84375 L 34.578125 -32.625 L 34.234375 -30.28125 L 34.1875 -29.234375 L 33.625 -27.109375 L 33.125 -25.9375 L 32.84375 -24.9375 L 32.296875 -23.890625 L 31.0625 -21.984375 L 29.453125 -20.375 L 28.453125 -19.765625 L 27.953125 -18.484375 L 27.953125 -17.265625 L 29.890625 -14.46875 L 31.515625 -11.578125 L 32.171875 -10.578125 L 32.625 -9.578125 L 33.296875 -8.6875 L 34.34375 -6.796875 L 35.1875 -5.84375 L 35.625 -4.78125 L 36.1875 -3.84375 L 36.96875 -3 L 37.46875 -1.671875 L 37.1875 -0.390625 L 36.25 0.109375 L 35.078125 0 L 28.890625 0 L 27 -0.390625 L 25.9375 -1.21875 L 24.4375 -4.125 L 23.71875 -5.0625 L 23.21875 -6.015625 L 22.546875 -6.953125 L 21.15625 -9.859375 L 18.875 -13.640625 L 17.8125 -14.46875 L 16.140625 -14.8125 L 14.75 -14.140625 L 14.25 -13.140625 L 14.25 -9.6875 L 14.140625 -8.46875 L 14.3125 -1.71875 L 13.75 -0.5 L 12.140625 0.0625 L 6.296875 0.109375 L 4.671875 -0.5 Z M 4.28125 -1.671875 "/></g></g></g><g fill="#f57433" fill-opacity="1"><g transform="translate(90.234089, 52.895537)"><g><path d="M 4.234375 -1.5625 L 4.125 -7.234375 L 4.234375 -8.34375 L 4.0625 -9.359375 L 4.234375 -10.46875 L 4.125 -11.6875 L 4.28125 -14.3125 L 4.171875 -15.59375 L 4.28125 -17.3125 L 4.125 -18.375 L 4.125 -21.59375 L 4.234375 -22.765625 L 4.015625 -26.171875 L 4.234375 -27.28125 L 4.125 -28.21875 L 4.28125 -29.453125 L 4.015625 -32.796875 L 4.171875 -33.84375 L 4.0625 -35.078125 L 4.0625 -36.125 L 4.234375 -37.359375 L 4.84375 -38.296875 L 6.5625 -38.796875 L 7.625 -38.921875 L 8.734375 -38.796875 L 12.03125 -38.921875 L 13.75 -38.359375 L 14.421875 -37.1875 L 14.359375 -36.25 L 14.53125 -30.734375 L 14.421875 -29.734375 L 14.421875 -26.390625 L 14.859375 -25.328125 L 16.03125 -24.828125 L 21.4375 -24.890625 L 22.4375 -24.78125 L 24.65625 -24.78125 L 25.609375 -25.328125 L 26.21875 -26.4375 L 26.21875 -29.671875 L 26.4375 -30.625 L 26.328125 -36.6875 L 26.78125 -38.296875 L 28.453125 -38.796875 L 29.5625 -38.796875 L 31.34375 -38.96875 L 34.1875 -38.921875 L 35.90625 -38.359375 L 36.46875 -37.25 L 36.578125 -36.125 L 36.359375 -35.015625 L 36.46875 -33.953125 L 36.6875 -32.90625 L 36.40625 -28.28125 L 36.578125 -22.828125 L 36.46875 -21.59375 L 36.515625 -19.484375 L 36.359375 -18.3125 L 36.359375 -17.203125 L 36.46875 -16.03125 L 36.40625 -14.921875 L 36.625 -12.796875 L 36.625 -3.84375 L 36.40625 -1.5625 L 35.796875 -0.5 L 34.6875 0.109375 L 30.84375 0.109375 L 29.171875 -0.0625 L 28.0625 0.0625 L 26.9375 -0.5 L 26.390625 -1.671875 L 26.21875 -3.84375 L 26.4375 -5.515625 L 26.21875 -9.46875 L 26.390625 -10.515625 L 26.21875 -13.921875 L 25.671875 -15.03125 L 24.65625 -15.59375 L 23.609375 -15.59375 L 22.484375 -15.703125 L 21.375 -15.59375 L 18.09375 -15.59375 L 17.09375 -15.703125 L 15.921875 -15.703125 L 14.8125 -15.03125 L 14.25 -13.859375 L 14.421875 -9.46875 L 14.3125 -8.296875 L 14.359375 -7.078125 L 14.25 -6.015625 L 14.359375 -4.90625 L 14.25 -3.890625 L 14.421875 -2.671875 L 14.359375 -1.5625 L 13.921875 -0.453125 L 12.6875 0.0625 L 11.53125 0.171875 L 10.359375 0 L 8.734375 -0.0625 L 7.015625 0.109375 L 5.953125 0.109375 L 4.671875 -0.390625 Z M 4.234375 -1.5625 "/></g></g></g><g fill="#f57433" fill-opacity="1"><g transform="translate(129.640078, 52.895537)"><g><path d="M 4.015625 -1.609375 L 4.234375 -2.734375 L 4.28125 -3.84375 L 4.171875 -6.015625 L 4.171875 -7.125 L 4.0625 -8.40625 L 4.234375 -9.40625 L 4.171875 -10.46875 L 4.28125 -11.6875 L 4.125 -12.859375 L 4.234375 -15.09375 L 4.0625 -17.265625 L 4.234375 -18.421875 L 4.234375 -28.390625 L 4.125 -29.390625 L 4.234375 -30.5625 L 4.015625 -33.40625 L 4.234375 -35.015625 L 4.125 -37.25 L 4.671875 -38.46875 L 6.296875 -38.859375 L 13.578125 -39.03125 L 14.59375 -38.921875 L 16.75 -38.96875 L 17.875 -38.859375 L 20.3125 -38.96875 L 21.4375 -38.796875 L 22.4375 -38.921875 L 26.890625 -38.859375 L 28.0625 -38.359375 L 28.609375 -37.25 L 28.453125 -36.1875 L 28.390625 -34.96875 L 28.5625 -33.90625 L 28.671875 -31.625 L 28.0625 -30.625 L 26.890625 -30 L 16.203125 -29.953125 L 14.46875 -29.453125 L 13.921875 -27.84375 L 14.03125 -26.109375 L 14.703125 -25.109375 L 15.640625 -24.5 L 20.046875 -24.546875 L 21.328125 -24.4375 L 22.484375 -24.4375 L 23.609375 -24.546875 L 25.828125 -24.5 L 26.78125 -23.890625 L 27.28125 -22.828125 L 27.390625 -21.71875 L 27.28125 -17.3125 L 26.71875 -16.25 L 25.609375 -15.640625 L 24.609375 -15.59375 L 23.4375 -15.703125 L 21.9375 -15.59375 L 18.984375 -15.75 L 17.875 -15.640625 L 15.703125 -15.640625 L 14.703125 -15.03125 L 14.203125 -13.859375 L 14.140625 -11.140625 L 14.640625 -9.40625 L 15.8125 -8.734375 L 17.03125 -8.859375 L 18.265625 -8.734375 L 19.3125 -8.90625 L 26.671875 -8.796875 L 28.34375 -8.234375 L 29.0625 -7.125 L 28.953125 -6.0625 L 29 -2.609375 L 28.890625 -1.5625 L 28.390625 -0.5 L 27.21875 0.0625 L 26.171875 0.171875 L 22.765625 -0.0625 L 19.375 0.109375 L 18.375 -0.0625 L 5.796875 0.0625 L 4.734375 -0.5625 Z M 4.015625 -1.609375 "/></g></g></g></g></g><g transform="matrix(1, 0, 0, 1, 177, 13)"><g clip-path="url(#d584c66c55)"><g fill="#ffffff" fill-opacity="1"><g transform="translate(0.47923, 53.840827)"><g><path d="M 14.15625 0.609375 L 13.03125 0.28125 L 12.03125 0.28125 L 10.8125 -0.21875 L 9.796875 -0.453125 L 7.75 -1.21875 L 5.1875 -3.171875 L 4.296875 -4.015625 L 2.5 -6.90625 L 1.734375 -8.90625 L 1.390625 -10.03125 L 1.28125 -11.140625 L 1.34375 -12.8125 L 1.171875 -14.421875 L 1.21875 -16.375 L 1.78125 -17.4375 L 3.015625 -17.9375 L 4.234375 -17.9375 L 5.34375 -18.046875 L 8.859375 -17.9375 L 10.078125 -17.484375 L 10.6875 -16.484375 L 10.578125 -15.484375 L 10.640625 -12.984375 L 10.96875 -11.25 L 11.359375 -10.3125 L 12.140625 -9.578125 L 13.140625 -9.03125 L 14.265625 -8.640625 L 15.8125 -8.296875 L 17.4375 -8.46875 L 19.390625 -9.40625 L 20 -10.1875 L 20.4375 -11.3125 L 20.671875 -28.40625 L 20.046875 -29.46875 L 18.890625 -30.078125 L 17.15625 -29.96875 L 15.546875 -29.96875 L 14.484375 -30.140625 L 13.203125 -30.6875 L 12.8125 -31.859375 L 12.703125 -32.96875 L 12.8125 -33.875 L 12.75 -35.203125 L 12.8125 -36.265625 L 12.703125 -37.4375 L 13.3125 -38.375 L 14.484375 -38.875 L 15.65625 -38.875 L 17.328125 -39.15625 L 18.9375 -38.875 L 20.171875 -39.046875 L 24.625 -38.875 L 25.796875 -39 L 28.578125 -38.9375 L 30.296875 -38.484375 L 30.859375 -37.375 L 30.96875 -28.515625 L 30.796875 -27.515625 L 30.921875 -12.75 L 30.640625 -10.03125 L 29.90625 -7.625 L 28.96875 -5.734375 L 26.734375 -3.28125 L 25.796875 -2.625 L 25.015625 -1.953125 L 21.890625 -0.5 L 20.890625 0.109375 L 18.65625 0.453125 L 17.4375 0.453125 L 15.875 0.609375 Z M 14.15625 0.609375 "/></g></g></g><g fill="#ffffff" fill-opacity="1"><g transform="translate(33.340677, 53.840827)"><g><path d="M 0.71875 -1.5 L 1.390625 -3.84375 L 1.890625 -4.953125 L 2.5625 -5.84375 L 4.171875 -9.921875 L 5.734375 -12.8125 L 6.125 -13.921875 L 6.625 -14.8125 L 6.96875 -15.984375 L 7.75 -17.4375 L 8.125 -18.5 L 8.96875 -19.9375 L 9.859375 -21.953125 L 10.46875 -22.953125 L 10.75 -23.890625 L 13.875 -30.921875 L 14.484375 -31.921875 L 16.875 -36.9375 L 17.21875 -37.9375 L 18.265625 -38.9375 L 20.046875 -39.5 L 21.953125 -39 L 22.953125 -37.9375 L 23.28125 -36.875 L 23.78125 -36.046875 L 24.671875 -33.921875 L 25.796875 -31.859375 L 26.625 -29.90625 L 26.90625 -29.015625 L 27.90625 -26.90625 L 28.234375 -25.84375 L 29.359375 -23.890625 L 29.640625 -22.84375 L 30.1875 -21.890625 L 30.640625 -20.9375 L 31.25 -19.9375 L 31.578125 -18.828125 L 32.078125 -17.984375 L 32.46875 -16.875 L 32.96875 -15.9375 L 33.421875 -14.8125 L 34.03125 -13.921875 L 34.8125 -11.859375 L 35.375 -10.921875 L 35.765625 -9.859375 L 36.703125 -7.859375 L 37.046875 -6.796875 L 37.59375 -5.953125 L 37.9375 -4.84375 L 38.65625 -3.90625 L 39.046875 -2.890625 L 39.375 -1.5 L 39.15625 -0.328125 L 38.15625 0 L 34.703125 0.109375 L 32.75 -0.0625 L 31.75 0.0625 L 30.296875 -0.5 L 29.359375 -1.390625 L 28.75 -2.390625 L 28.46875 -3.390625 L 27.296875 -4.296875 L 25.453125 -4.90625 L 22.84375 -4.796875 L 21.671875 -4.90625 L 20.671875 -4.90625 L 19.390625 -4.734375 L 18.21875 -4.90625 L 15.09375 -4.84375 L 13.984375 -4.953125 L 12.640625 -4.40625 L 11.703125 -3.34375 L 10.75 -1.453125 L 9.75 -0.453125 L 8.46875 0.109375 L 7.015625 -0.0625 L 2.109375 -0.0625 L 1 -0.328125 Z M 17.9375 -13.765625 L 22.28125 -13.8125 L 23.234375 -14.265625 L 23.34375 -15.265625 L 22.953125 -16.265625 L 22.390625 -17.375 L 22.171875 -18.265625 L 21.5625 -19.21875 L 20.828125 -21.390625 L 20.171875 -21.828125 L 19.4375 -21.28125 L 18.9375 -20.390625 L 16.71875 -15.3125 L 16.875 -14.203125 Z M 17.9375 -13.765625 "/></g></g></g><g fill="#ffffff" fill-opacity="1"><g transform="translate(71.493373, 53.840827)"><g><path d="M 20.828125 0.671875 L 19.65625 0.5625 L 17.65625 0.109375 L 16.4375 0 L 14.8125 -0.5625 L 10.46875 -2.78125 L 8.640625 -4.234375 L 8.015625 -4.953125 L 7.1875 -5.734375 L 6.46875 -6.625 L 5.796875 -7.296875 L 3.234375 -12.359375 L 2.734375 -14.484375 L 2.625 -15.546875 L 2.34375 -16.546875 L 2.171875 -17.71875 L 2.34375 -22.21875 L 3.28125 -26.515625 L 4.125 -28.625 L 5.84375 -31.578125 L 8.578125 -34.765625 L 10.46875 -36.15625 L 11.46875 -36.65625 L 12.3125 -37.265625 L 16.484375 -38.828125 L 22.390625 -39.65625 L 23.890625 -39.609375 L 27.125 -39.046875 L 31.421875 -37.71875 L 32.25 -37.09375 L 33.921875 -36.375 L 35.203125 -35.484375 L 36.8125 -34.09375 L 38.375 -32.359375 L 39.609375 -30.6875 L 40.65625 -28.625 L 42.0625 -24.453125 L 42.453125 -22.171875 L 42.609375 -19.390625 L 42.390625 -17.765625 L 42.328125 -16.59375 L 42.0625 -15.484375 L 42 -14.484375 L 41.546875 -12.359375 L 40.71875 -10.25 L 38.265625 -6.515625 L 37.484375 -5.734375 L 36.765625 -4.734375 L 35.203125 -3.390625 L 34.140625 -2.890625 L 33.3125 -2.234375 L 31.46875 -1.21875 L 27.296875 0.171875 L 23.953125 0.609375 Z M 23.953125 -9.1875 L 25.0625 -9.40625 L 25.90625 -9.796875 L 26.90625 -10.078125 L 29.578125 -11.921875 L 30.359375 -12.8125 L 30.6875 -13.640625 L 31.3125 -14.65625 L 31.6875 -15.65625 L 32.140625 -17.71875 L 32.25 -21.109375 L 32.078125 -22.109375 L 31.578125 -23.171875 L 30.921875 -25.296875 L 28.75 -27.578125 L 27.015625 -28.796875 L 26.015625 -29.25 L 25.015625 -29.46875 L 22.34375 -29.796875 L 20.78125 -29.6875 L 18.609375 -29.125 L 17.875 -28.859375 L 15.09375 -26.953125 L 13.765625 -25.171875 L 13.421875 -24.171875 L 12.984375 -23.171875 L 12.8125 -22.109375 L 12.53125 -21.109375 L 12.53125 -17.71875 L 12.984375 -15.65625 L 13.484375 -14.65625 L 13.765625 -13.765625 L 14.53125 -12.703125 L 15.265625 -11.921875 L 16.765625 -10.6875 L 17.65625 -10.1875 L 19.65625 -9.359375 L 20.890625 -9.1875 Z M 23.953125 -9.1875 "/></g></g></g></g></g><g clip-path="url(#95c7621b4a)"><g clip-path="url(#de7574083d)"><g clip-path="url(#e2d86b5f2a)"><path fill="#f57433" d="M 5.355469 43.613281 C 13.148438 15 35.613281 36.117188 53.761719 16.59375 C 50.785156 18.679688 47.457031 19.628906 43.910156 20.015625 C 52.1875 17.222656 58.875 9.648438 59.421875 0.773438 C 57.214844 16.265625 39.480469 11.613281 28.570312 10.582031 C 22.316406 9.929688 16.667969 12.550781 12.507812 17.214844 C 13.707031 14.789062 15.449219 12.90625 17.625 11.386719 C 9.414062 15.089844 3.789062 23.113281 5.277344 32.601562 C 5.570312 34.460938 4.027344 41.476562 3.589844 43.570312 C 3.277344 45.070312 5.300781 44.96875 5.355469 43.613281 Z M 5.554688 37.417969 C 7.75 24.261719 20.902344 15.976562 33.574219 15.519531 C 38.464844 15.285156 43.933594 15.046875 48.585938 13.882812 C 41.988281 15.875 34.667969 15.570312 27.984375 17.386719 C 18.089844 20.078125 8.953125 27.273438 6.609375 37.476562 C 6.257812 38.988281 5.390625 38.433594 5.554688 37.417969 Z M 5.554688 37.417969 " fill-opacity="1" fill-rule="nonzero"/></g></g></g></svg>