<svg xmlns="http://www.w3.org/2000/svg" xmlns:xlink="http://www.w3.org/1999/xlink" width="500" zoomAndPan="magnify" viewBox="0 0 375 374.999991" height="500" preserveAspectRatio="xMidYMid meet" version="1.0"><defs><clipPath id="d3ac91063a"><path d="M 37.5 222.710938 L 265.214844 222.710938 L 265.214844 359.082031 L 37.5 359.082031 Z M 37.5 222.710938 " clip-rule="nonzero"/></clipPath><clipPath id="b6452914a7"><path d="M 137.644531 15.601562 L 337.492188 15.601562 L 337.492188 289.527344 L 137.644531 289.527344 Z M 137.644531 15.601562 " clip-rule="nonzero"/></clipPath></defs><g clip-path="url(#d3ac91063a)"><path fill="#e9a600" d="M 141.992188 222.859375 L 264.867188 257.511719 L 149.871094 311.335938 L 49.578125 280.355469 L 49.578125 306.347656 L 149.34375 340.742188 L 265.148438 288.136719 L 265.007812 305.945312 L 147.769531 359.382812 L 37.5 318.6875 L 37.5 270.640625 L 141.992188 222.859375 " fill-opacity="1" fill-rule="evenodd"/></g><g clip-path="url(#b6452914a7)"><path fill="#000000" d="M 140.582031 202.558594 C 177.421875 156.527344 200.640625 142.664062 233.105469 119.523438 L 187.792969 158.433594 C 147.355469 195.625 124.796875 230.945312 145.566406 289.390625 C 131.695312 205.695312 170.042969 194.523438 249.238281 155.824219 C 232.210938 158.339844 218.195312 157.246094 210.8125 148.1875 C 275.675781 179.429688 306.582031 57.953125 337.492188 15.851562 C 304.476562 10.179688 124.480469 102.628906 176.253906 151.65625 C 168.167969 152.773438 161.894531 145.484375 162.488281 136.382812 C 148.480469 155.390625 144.402344 181.609375 140.582031 202.558594 " fill-opacity="1" fill-rule="evenodd"/></g></svg>