<svg xmlns="http://www.w3.org/2000/svg" xmlns:xlink="http://www.w3.org/1999/xlink" width="400" zoomAndPan="magnify" viewBox="0 0 300 74.999997" height="100" preserveAspectRatio="xMidYMid meet" version="1.0"><defs><g/><clipPath id="e2ba94b3bf"><rect x="0" width="142" y="0" height="75"/></clipPath><clipPath id="30fb585709"><rect x="0" width="118" y="0" height="75"/></clipPath><clipPath id="fd4ff3092e"><path d="M 7 0 L 41 0 L 41 71 L 7 71 Z M 7 0 " clip-rule="nonzero"/></clipPath><clipPath id="b8e8542f4e"><path d="M 20.28125 -3.574219 L 50.472656 5.398438 L 30.175781 73.695312 L -0.0195312 64.722656 Z M 20.28125 -3.574219 " clip-rule="nonzero"/></clipPath><clipPath id="9f9e29f018"><path d="M 20.28125 -3.574219 L 50.472656 5.398438 L 30.175781 73.695312 L -0.0195312 64.722656 Z M 20.28125 -3.574219 " clip-rule="nonzero"/></clipPath></defs><g transform="matrix(1, 0, 0, 1, 38, -0.000000000000001893)"><g clip-path="url(#e2ba94b3bf)"><g fill="#05b1f2" fill-opacity="1"><g transform="translate(2.688521, 66.250437)"><g><path d="M 6.546875 -57.1875 C 9.453125 -61.550781 13.835938 -64.351562 19.703125 -65.59375 C 21.859375 -66.019531 24.125 -66.234375 26.5 -66.234375 C 35.488281 -66.234375 45.640625 -63.003906 56.953125 -56.546875 L 54.84375 -48.953125 C 43.8125 -54.828125 34.390625 -57.765625 26.578125 -57.765625 C 24.742188 -57.765625 23.019531 -57.601562 21.40625 -57.28125 C 17.476562 -56.519531 14.757812 -54.738281 13.25 -51.9375 C 12.332031 -50.269531 11.875 -48.601562 11.875 -46.9375 C 11.875 -46.882812 11.875 -46.859375 11.875 -46.859375 L 11.875 -46.6875 L 16.484375 -46.6875 L 16.484375 -38.296875 L 11.953125 -38.296875 L 11.953125 0.25 L 3.546875 0.25 L 3.546875 -38.296875 L -0.96875 -38.296875 L -0.96875 -46.6875 L 3.3125 -46.6875 C 3.3125 -50.300781 4.390625 -53.800781 6.546875 -57.1875 Z M 6.546875 -57.1875 "/></g></g></g><g fill="#05b1f2" fill-opacity="1"><g transform="translate(18.279151, 66.250437)"><g><path d="M 26.09375 -9.9375 C 23.9375 -7.03125 21.703125 -5.195312 19.390625 -4.4375 C 18.097656 -3.957031 16.804688 -3.71875 15.515625 -3.71875 C 13.359375 -3.71875 11.203125 -4.28125 9.046875 -5.40625 C 5.867188 -7.132812 3.6875 -9.988281 2.5 -13.96875 C 1.53125 -16.9375 1.53125 -20.222656 2.5 -23.828125 C 3.414062 -27.597656 5.164062 -30.613281 7.75 -32.875 C 10.332031 -35.082031 13.378906 -36.1875 16.890625 -36.1875 C 22.160156 -36.351562 26.195312 -34.363281 29 -30.21875 C 30.71875 -32.207031 32.765625 -33.203125 35.140625 -33.203125 C 37.566406 -33.203125 39.613281 -32.445312 41.28125 -30.9375 L 40.390625 -34.5 L 40.3125 -38.296875 L -0.484375 -38.296875 L -0.484375 -46.6875 L 53 -46.6875 L 53 -38.296875 L 48.953125 -38.296875 L 48.953125 0.328125 L 40.546875 0.328125 L 40.546875 -16.640625 C 40.441406 -18.097656 40.144531 -19.472656 39.65625 -20.765625 C 38.75 -22.910156 37.675781 -24.015625 36.4375 -24.078125 C 35.570312 -24.128906 34.976562 -23.9375 34.65625 -23.5 C 33.6875 -22.59375 33.203125 -20.550781 33.203125 -17.375 L 24.71875 -17.203125 C 24.71875 -19.460938 24.3125 -21.457031 23.5 -23.1875 C 22.15625 -26.25 19.953125 -27.78125 16.890625 -27.78125 C 13.648438 -27.78125 11.546875 -25.789062 10.578125 -21.8125 C 10.097656 -19.875 10.070312 -18.203125 10.5 -16.796875 C 10.988281 -14.804688 11.851562 -13.488281 13.09375 -12.84375 C 14.382812 -12.144531 15.488281 -11.957031 16.40625 -12.28125 C 17.695312 -12.875 18.957031 -14.300781 20.1875 -16.5625 Z M 26.09375 -9.9375 "/></g></g></g><g fill="#05b1f2" fill-opacity="1"><g transform="translate(68.847586, 66.250437)"><g><path d="M -0.640625 -46.6875 L 23.015625 -46.6875 L 23.015625 -38.296875 L 18.984375 -38.296875 C 14.347656 -32.910156 11.519531 -27.441406 10.5 -21.890625 C 10.28125 -20.546875 10.171875 -19.304688 10.171875 -18.171875 C 10.171875 -14.347656 11.273438 -11.46875 13.484375 -9.53125 C 14.566406 -8.507812 16.316406 -8 18.734375 -8 C 19.972656 -8 21.375 -8.132812 22.9375 -8.40625 L 20.921875 0.328125 C 20.921875 0.328125 20.894531 0.328125 20.84375 0.328125 L 20.515625 0.328125 C 20.460938 0.328125 20.4375 0.328125 20.4375 0.328125 C 20.382812 0.328125 20.359375 0.328125 20.359375 0.328125 L 19.796875 0.328125 C 19.796875 0.328125 19.765625 0.328125 19.703125 0.328125 L 19.546875 0.328125 C 19.546875 0.328125 19.519531 0.328125 19.46875 0.328125 L 19.3125 0.328125 C 19.3125 0.328125 19.28125 0.328125 19.21875 0.328125 L 19.140625 0.328125 C 19.140625 0.328125 19.113281 0.328125 19.0625 0.328125 L 17.6875 0.328125 C 13.757812 0.328125 10.445312 -0.859375 7.75 -3.234375 C 3.769531 -6.785156 1.78125 -11.6875 1.78125 -17.9375 C 1.78125 -19.601562 1.914062 -21.351562 2.1875 -23.1875 C 3.257812 -29.269531 5.273438 -34.304688 8.234375 -38.296875 L -0.640625 -38.296875 Z M -0.640625 -46.6875 "/></g></g></g><g fill="#05b1f2" fill-opacity="1"><g transform="translate(90.900651, 66.250437)"><g><path d="M 6.0625 -29.484375 C 1.75 -32.015625 0.0507812 -36.941406 0.96875 -44.265625 L 9.6875 -45.234375 C 8.613281 -40.546875 8.644531 -37.828125 9.78125 -37.078125 C 10.6875 -36.703125 11.519531 -36.675781 12.28125 -37 C 14.269531 -38.125 15.882812 -40.273438 17.125 -43.453125 L 18.421875 -46.9375 C 22.941406 -46.238281 26.304688 -44.726562 28.515625 -42.40625 C 31.046875 -39.820312 32.285156 -36.644531 32.234375 -32.875 C 32.066406 -26.46875 29.238281 -21.914062 23.75 -19.21875 C 28.863281 -17.925781 33.144531 -15.453125 36.59375 -11.796875 L 36.59375 -46.6875 L 50.078125 -46.6875 L 50.078125 -38.296875 L 45.078125 -38.296875 L 45.078125 0.328125 L 37 0.328125 C 35.863281 -2.316406 33.765625 -4.710938 30.703125 -6.859375 C 24.453125 -10.742188 16.019531 -12.6875 5.40625 -12.6875 L 2.1875 -21.890625 C 4.5 -21.992188 6.140625 -22.128906 7.109375 -22.296875 C 12.171875 -22.941406 16.289062 -24.285156 19.46875 -26.328125 C 22.269531 -28.484375 23.695312 -30.75 23.75 -33.125 C 23.800781 -34.945312 23.554688 -36.019531 23.015625 -36.34375 C 21.617188 -33.4375 19.195312 -31.070312 15.75 -29.25 C 12.625 -27.894531 9.394531 -27.972656 6.0625 -29.484375 Z M 6.0625 -29.484375 "/></g></g></g></g></g><g transform="matrix(1, 0, 0, 1, 180, -0.000000000000001893)"><g clip-path="url(#30fb585709)"><g fill="#ffffff" fill-opacity="1"><g transform="translate(2.455758, 66.926045)"><g><path d="M 34.015625 -11.15625 L 34.015625 -38.3125 L 20.84375 -38.3125 C 23.488281 -36.6875 26.425781 -34.257812 29.65625 -31.03125 L 30.703125 -24.25 C 24.617188 -22.84375 20.203125 -21.332031 17.453125 -19.71875 C 23.972656 -18.050781 29.492188 -15.195312 34.015625 -11.15625 Z M 47.03125 -46.703125 L 47.03125 -38.3125 L 42.5 -38.3125 L 42.5 0.328125 L 34.984375 0.328125 C 27.234375 -8.617188 17.457031 -12.984375 5.65625 -12.765625 L 1.375 -19.796875 C 8.425781 -24.429688 14.59375 -27.640625 19.875 -29.421875 C 14.757812 -33.078125 8.429688 -35.097656 0.890625 -35.484375 L 1.453125 -38.3125 L -1.125 -38.3125 L -1.125 -46.703125 Z M 47.03125 -46.703125 "/></g></g></g><g fill="#ffffff" fill-opacity="1"><g transform="translate(48.509919, 66.926045)"><g><path d="M -1.21875 -46.703125 L 17.78125 -46.703125 L 17.78125 -38.3125 L 12.53125 -38.3125 L 12.53125 0.328125 L 4.046875 0.328125 L 4.046875 -38.3125 L -1.21875 -38.3125 Z M -1.21875 -46.703125 "/></g></g></g><g fill="#ffffff" fill-opacity="1"><g transform="translate(63.133873, 66.926045)"><g><path d="M 46.546875 -24.40625 C 49.453125 -23.4375 51.390625 -21.304688 52.359375 -18.015625 C 53.222656 -12.953125 51.878906 -8.695312 48.328125 -5.25 C 44.441406 -1.53125 39.347656 0.328125 33.046875 0.328125 C 32.242188 0.328125 31.195312 0.242188 29.90625 0.078125 C 24.675781 -0.515625 18.828125 -3.34375 12.359375 -8.40625 C 7.191406 -13.519531 3.476562 -20.007812 1.21875 -27.875 L 8.734375 -32.890625 C 10.234375 -25.671875 13.085938 -19.851562 17.296875 -15.4375 C 21.441406 -11.445312 26.101562 -9.078125 31.28125 -8.328125 C 35.75 -7.515625 39.382812 -8.398438 42.1875 -10.984375 C 43.695312 -12.609375 44.289062 -14.09375 43.96875 -15.4375 C 43.476562 -17.425781 41.882812 -18.554688 39.1875 -18.828125 C 39.132812 -18.773438 38.546875 -18.5625 37.421875 -18.1875 L 34.34375 -25.046875 C 39.25 -27.578125 41.835938 -30.21875 42.109375 -32.96875 C 42.265625 -34.800781 41.722656 -36.148438 40.484375 -37.015625 C 38.378906 -38.410156 35.414062 -38.382812 31.59375 -36.9375 C 27.613281 -35.476562 25.21875 -33.398438 24.40625 -30.703125 C 23.976562 -29.410156 23.925781 -28.523438 24.25 -28.046875 C 24.832031 -27.234375 26.609375 -26.878906 29.578125 -26.984375 L 27.796875 -18.421875 C 22.898438 -18.910156 19.476562 -20.421875 17.53125 -22.953125 C 15.4375 -25.640625 15.035156 -29.0625 16.328125 -33.21875 C 17.992188 -38.550781 22.113281 -42.375 28.6875 -44.6875 C 35.207031 -47.21875 40.726562 -47.003906 45.25 -44.046875 C 49.238281 -41.296875 50.988281 -37.363281 50.5 -32.25 C 50.34375 -29.601562 49.023438 -26.988281 46.546875 -24.40625 Z M 46.546875 -24.40625 "/></g></g></g></g></g><g clip-path="url(#fd4ff3092e)"><g clip-path="url(#b8e8542f4e)"><g clip-path="url(#9f9e29f018)"><path fill="#05b1f2" d="M 21.796875 68.457031 C 8.789062 41.804688 39.605469 42.871094 40.378906 16.226562 C 39.515625 19.757812 37.640625 22.667969 35.226562 25.292969 C 39.613281 17.738281 39.644531 7.632812 34.207031 0.597656 C 42.761719 13.703125 26.359375 21.898438 17.476562 28.316406 C 12.339844 31.945312 9.824219 37.640625 9.769531 43.890625 C 9.070312 41.277344 9.140625 38.710938 9.773438 36.132812 C 6.039062 44.332031 7.101562 54.070312 14.476562 60.226562 C 15.921875 61.433594 19.386719 67.726562 20.441406 69.585938 C 21.195312 70.921875 22.648438 69.511719 21.796875 68.457031 Z M 17.859375 63.664062 C 10.835938 52.324219 15.265625 37.421875 24.492188 28.726562 C 28.015625 25.328125 31.96875 21.542969 34.699219 17.597656 C 31.050781 23.449219 25.347656 28.042969 21.519531 33.816406 C 15.855469 42.363281 13.726562 53.796875 18.691406 63.015625 C 19.425781 64.382812 18.410156 64.539062 17.859375 63.664062 Z M 17.859375 63.664062 " fill-opacity="1" fill-rule="nonzero"/></g></g></g></svg>