<svg xmlns="http://www.w3.org/2000/svg" xmlns:xlink="http://www.w3.org/1999/xlink" width="400" zoomAndPan="magnify" viewBox="0 0 300 74.999997" height="100" preserveAspectRatio="xMidYMid meet" version="1.0"><defs><g/><clipPath id="b3d3bb4447"><path d="M 47 0 L 88 0 L 88 74 L 47 74 Z M 47 0 " clip-rule="nonzero"/></clipPath><clipPath id="9edc4ad325"><path d="M 69.292969 -6.65625 L 100.496094 8.058594 L 67.226562 78.605469 L 36.023438 63.890625 Z M 69.292969 -6.65625 " clip-rule="nonzero"/></clipPath><clipPath id="29dc8676bd"><path d="M 69.292969 -6.65625 L 100.496094 8.058594 L 67.226562 78.605469 L 36.023438 63.890625 Z M 69.292969 -6.65625 " clip-rule="nonzero"/></clipPath><clipPath id="9627688ba0"><path d="M 0.839844 0.441406 L 145 0.441406 L 145 50 L 0.839844 50 Z M 0.839844 0.441406 " clip-rule="nonzero"/></clipPath><clipPath id="ad5d7d6e24"><rect x="0" width="145" y="0" height="50"/></clipPath><clipPath id="a4e55a3645"><path d="M 145 0.441406 L 249 0.441406 L 249 50 L 145 50 Z M 145 0.441406 " clip-rule="nonzero"/></clipPath><clipPath id="a065f7b9fe"><rect x="0" width="104" y="0" height="50"/></clipPath><clipPath id="6598590dd5"><rect x="0" width="249" y="0" height="50"/></clipPath></defs><g clip-path="url(#b3d3bb4447)"><g clip-path="url(#9edc4ad325)"><g clip-path="url(#29dc8676bd)"><path fill="#05b1f2" d="M 59.035156 71.390625 C 49.390625 40.457031 82.496094 46.695312 87.730469 18.046875 C 86.21875 21.714844 83.710938 24.550781 80.671875 26.988281 C 86.652344 19.550781 88.359375 8.640625 83.644531 0.144531 C 90.71875 15.714844 71.648438 21.855469 60.996094 27.320312 C 54.851562 30.390625 51.191406 36.128906 50.101562 42.871094 C 49.777344 39.929688 50.277344 37.171875 51.390625 34.492188 C 46 42.730469 45.539062 53.425781 52.488281 61.292969 C 53.847656 62.832031 56.550781 70.199219 57.382812 72.386719 C 57.976562 73.949219 59.78125 72.667969 59.035156 71.390625 Z M 55.574219 65.5625 C 49.859375 52.15625 57.105469 36.792969 68.507812 28.921875 C 72.871094 25.835938 77.769531 22.398438 81.371094 18.589844 C 76.464844 24.308594 69.542969 28.328125 64.457031 33.929688 C 56.925781 42.222656 52.742188 54.222656 56.578125 64.996094 C 57.144531 66.597656 56.023438 66.597656 55.574219 65.5625 Z M 55.574219 65.5625 " fill-opacity="1" fill-rule="nonzero"/></g></g></g><g transform="matrix(1, 0, 0, 1, 51, 25)"><g clip-path="url(#6598590dd5)"><g clip-path="url(#9627688ba0)"><g transform="matrix(1, 0, 0, 1, 0.000000000000007105, 0)"><g clip-path="url(#ad5d7d6e24)"><g fill="#05b1f2" fill-opacity="1"><g transform="translate(0.864792, 47.836717)"><g><path d="M 3.796875 -1.796875 L 3.734375 -20.484375 L 3.640625 -21.4375 L 3.59375 -22.53125 L 3.734375 -24.375 L 3.640625 -25.375 L 3.734375 -26.328125 L 3.734375 -33.3125 L 4.1875 -34.40625 L 5.234375 -34.796875 L 6.1875 -34.953125 L 8.171875 -34.75 L 9.171875 -34.953125 L 11.125 -34.953125 L 12.109375 -34.359375 L 12.609375 -33.25 L 12.5625 -32.3125 L 12.71875 -29.46875 L 12.609375 -27.46875 L 12.71875 -26.28125 L 12.671875 -9.375 L 13.0625 -8.375 L 14.0625 -7.984375 L 15.109375 -8.078125 L 17.046875 -7.984375 L 17.953125 -8.125 L 18.953125 -7.921875 L 20.984375 -7.984375 L 22.03125 -7.828125 L 22.984375 -8.03125 L 24.03125 -8.125 L 24.921875 -7.53125 L 25.375 -6.03125 L 25.421875 -2 L 24.875 -0.453125 L 23.9375 0.046875 L 14.0625 0 L 12.96875 0.09375 L 12.015625 -0.046875 L 10.125 0.046875 L 8.171875 -0.046875 L 6.078125 0.09375 L 5.078125 0 L 4.140625 -0.5 Z M 3.796875 -1.796875 "/></g></g></g><g fill="#05b1f2" fill-opacity="1"><g transform="translate(26.487975, 47.836717)"><g><path d="M 2.390625 -1.453125 L 2.390625 -5.28125 L 2.5 -6.234375 L 3.09375 -7.1875 L 6.375 -8.234375 L 6.875 -9.328125 L 6.984375 -11.265625 L 6.78125 -13.40625 L 7.03125 -14.40625 L 6.828125 -16.359375 L 6.9375 -17.34375 L 6.984375 -19.390625 L 6.828125 -20.546875 L 6.78125 -21.390625 L 6.9375 -25.625 L 6.28125 -26.53125 L 3.234375 -27.578125 L 2.75 -28.515625 L 2.75 -29.46875 L 2.640625 -30.46875 L 2.640625 -31.5625 L 2.75 -32.40625 L 2.75 -33.359375 L 3.296875 -34.40625 L 4.390625 -34.90625 L 6.328125 -34.796875 L 7.28125 -34.859375 L 10.328125 -34.796875 L 11.421875 -34.90625 L 17.75 -34.859375 L 19.34375 -34.40625 L 19.75 -33.40625 L 19.84375 -32.40625 L 19.75 -31.515625 L 19.75 -28.5625 L 19.203125 -27.625 L 18.25 -27.078125 L 17.15625 -27.03125 L 16.203125 -26.46875 L 15.65625 -25.578125 L 15.65625 -23.484375 L 15.75 -22.4375 L 15.65625 -21.4375 L 15.75 -20.484375 L 15.65625 -18.953125 L 15.75 -17.453125 L 15.5625 -15.359375 L 15.75 -13.359375 L 15.65625 -9.28125 L 16.203125 -8.28125 L 19.546875 -7.234375 L 20.25 -6.375 L 20.09375 -3.34375 L 20.1875 -2.4375 L 20.1875 -1.34375 L 19.640625 -0.453125 L 18.703125 0.046875 L 3.890625 -0.046875 L 2.890625 -0.40625 Z M 2.390625 -1.453125 "/></g></g></g><g fill="#05b1f2" fill-opacity="1"><g transform="translate(47.923677, 47.836717)"><g><path d="M 3.84375 -1.5 L 3.6875 -2.5 L 3.796875 -3.390625 L 3.734375 -4.390625 L 3.84375 -5.484375 L 3.59375 -7.484375 L 3.734375 -9.46875 L 3.6875 -10.515625 L 3.84375 -11.421875 L 3.734375 -23.390625 L 3.59375 -24.4375 L 3.84375 -26.421875 L 3.6875 -27.421875 L 3.640625 -28.375 L 3.796875 -31.359375 L 3.6875 -32.359375 L 3.6875 -33.40625 L 4.390625 -34.296875 L 5.1875 -34.953125 L 9.21875 -34.859375 L 10.21875 -34.953125 L 11.265625 -34.859375 L 12.171875 -34.359375 L 12.671875 -33.25 L 12.71875 -32.265625 L 12.859375 -31.3125 L 12.71875 -24.078125 L 12.859375 -23.1875 L 12.8125 -22.140625 L 13.71875 -21.59375 L 14.90625 -21.640625 L 17.109375 -22.09375 L 17.953125 -22.484375 L 18.84375 -23.03125 L 19.59375 -23.6875 L 20.1875 -24.484375 L 20.84375 -25.234375 L 21.234375 -26.171875 L 21.734375 -28.171875 L 21.984375 -30.265625 L 21.84375 -33.3125 L 22.390625 -34.359375 L 23.578125 -34.953125 L 25.03125 -34.796875 L 29.5625 -34.953125 L 30.609375 -34.40625 L 31.015625 -33.25 L 31.0625 -31.265625 L 30.859375 -30.3125 L 30.96875 -29.21875 L 30.65625 -27.125 L 30.609375 -26.171875 L 30.109375 -24.28125 L 29.671875 -23.234375 L 29.421875 -22.34375 L 28.921875 -21.390625 L 27.828125 -19.6875 L 26.375 -18.25 L 25.484375 -17.703125 L 25.03125 -16.546875 L 25.03125 -15.453125 L 26.78125 -12.96875 L 28.21875 -10.375 L 28.8125 -9.46875 L 29.21875 -8.578125 L 29.8125 -7.78125 L 30.765625 -6.078125 L 31.515625 -5.234375 L 31.90625 -4.28125 L 32.40625 -3.4375 L 33.109375 -2.6875 L 33.5625 -1.5 L 33.3125 -0.34375 L 32.453125 0.09375 L 31.40625 0 L 25.875 0 L 24.1875 -0.34375 L 23.234375 -1.09375 L 21.890625 -3.6875 L 21.234375 -4.53125 L 20.796875 -5.390625 L 20.1875 -6.234375 L 18.953125 -8.828125 L 16.90625 -12.21875 L 15.953125 -12.96875 L 14.453125 -13.265625 L 13.21875 -12.671875 L 12.765625 -11.765625 L 12.765625 -8.671875 L 12.671875 -7.578125 L 12.8125 -1.546875 L 12.3125 -0.453125 L 10.875 0.046875 L 5.640625 0.09375 L 4.1875 -0.453125 Z M 3.84375 -1.5 "/></g></g></g><g fill="#05b1f2" fill-opacity="1"><g transform="translate(81.27377, 47.836717)"><g><path d="M 3.796875 -1.390625 L 3.6875 -6.484375 L 3.796875 -7.484375 L 3.640625 -8.375 L 3.796875 -9.375 L 3.6875 -10.46875 L 3.84375 -12.8125 L 3.734375 -13.953125 L 3.84375 -15.5 L 3.6875 -16.453125 L 3.6875 -19.34375 L 3.796875 -20.390625 L 3.59375 -23.4375 L 3.796875 -24.4375 L 3.6875 -25.28125 L 3.84375 -26.375 L 3.59375 -29.359375 L 3.734375 -30.3125 L 3.640625 -31.40625 L 3.640625 -32.359375 L 3.796875 -33.453125 L 4.34375 -34.296875 L 5.890625 -34.75 L 6.828125 -34.859375 L 7.828125 -34.75 L 10.765625 -34.859375 L 12.3125 -34.359375 L 12.90625 -33.3125 L 12.859375 -32.453125 L 13.015625 -27.515625 L 12.90625 -26.625 L 12.90625 -23.640625 L 13.3125 -22.6875 L 14.359375 -22.234375 L 19.203125 -22.28125 L 20.09375 -22.1875 L 22.09375 -22.1875 L 22.9375 -22.6875 L 23.484375 -23.6875 L 23.484375 -26.578125 L 23.6875 -27.421875 L 23.578125 -32.859375 L 23.984375 -34.296875 L 25.484375 -34.75 L 26.46875 -34.75 L 28.078125 -34.90625 L 30.609375 -34.859375 L 32.15625 -34.359375 L 32.65625 -33.359375 L 32.75 -32.359375 L 32.5625 -31.359375 L 32.65625 -30.421875 L 32.859375 -29.46875 L 32.609375 -25.328125 L 32.75 -20.4375 L 32.65625 -19.34375 L 32.703125 -17.453125 L 32.5625 -16.40625 L 32.5625 -15.40625 L 32.65625 -14.359375 L 32.609375 -13.359375 L 32.8125 -11.46875 L 32.8125 -3.4375 L 32.609375 -1.390625 L 32.0625 -0.453125 L 31.0625 0.09375 L 27.625 0.09375 L 26.125 -0.046875 L 25.125 0.046875 L 24.125 -0.453125 L 23.640625 -1.5 L 23.484375 -3.4375 L 23.6875 -4.9375 L 23.484375 -8.46875 L 23.640625 -9.421875 L 23.484375 -12.46875 L 22.984375 -13.46875 L 22.09375 -13.953125 L 21.140625 -13.953125 L 20.140625 -14.0625 L 19.140625 -13.953125 L 16.203125 -13.953125 L 15.3125 -14.0625 L 14.265625 -14.0625 L 13.265625 -13.46875 L 12.765625 -12.421875 L 12.90625 -8.46875 L 12.8125 -7.421875 L 12.859375 -6.328125 L 12.765625 -5.390625 L 12.859375 -4.390625 L 12.765625 -3.484375 L 12.90625 -2.390625 L 12.859375 -1.390625 L 12.46875 -0.40625 L 11.375 0.046875 L 10.328125 0.15625 L 9.28125 0 L 7.828125 -0.046875 L 6.28125 0.09375 L 5.328125 0.09375 L 4.1875 -0.34375 Z M 3.796875 -1.390625 "/></g></g></g><g fill="#05b1f2" fill-opacity="1"><g transform="translate(116.568057, 47.836717)"><g><path d="M 3.59375 -1.453125 L 3.796875 -2.4375 L 3.84375 -3.4375 L 3.734375 -5.390625 L 3.734375 -6.375 L 3.640625 -7.53125 L 3.796875 -8.421875 L 3.734375 -9.375 L 3.84375 -10.46875 L 3.6875 -11.515625 L 3.796875 -13.515625 L 3.640625 -15.453125 L 3.796875 -16.5 L 3.796875 -25.421875 L 3.6875 -26.328125 L 3.796875 -27.375 L 3.59375 -29.921875 L 3.796875 -31.359375 L 3.6875 -33.359375 L 4.1875 -34.453125 L 5.640625 -34.796875 L 12.171875 -34.953125 L 13.0625 -34.859375 L 15 -34.90625 L 16 -34.796875 L 18.203125 -34.90625 L 19.203125 -34.75 L 20.09375 -34.859375 L 24.078125 -34.796875 L 25.125 -34.359375 L 25.625 -33.359375 L 25.484375 -32.40625 L 25.421875 -31.3125 L 25.578125 -30.359375 L 25.671875 -28.3125 L 25.125 -27.421875 L 24.078125 -26.875 L 14.515625 -26.828125 L 12.96875 -26.375 L 12.46875 -24.921875 L 12.5625 -23.390625 L 13.15625 -22.484375 L 14.015625 -21.9375 L 17.953125 -21.984375 L 19.09375 -21.890625 L 20.140625 -21.890625 L 21.140625 -21.984375 L 23.140625 -21.9375 L 23.984375 -21.390625 L 24.4375 -20.4375 L 24.53125 -19.4375 L 24.4375 -15.5 L 23.9375 -14.5625 L 22.9375 -14.015625 L 22.03125 -13.953125 L 20.984375 -14.0625 L 19.640625 -13.953125 L 17 -14.109375 L 16 -14.015625 L 14.0625 -14.015625 L 13.15625 -13.46875 L 12.71875 -12.421875 L 12.671875 -9.96875 L 13.109375 -8.421875 L 14.15625 -7.828125 L 15.25 -7.921875 L 16.359375 -7.828125 L 17.296875 -7.984375 L 23.875 -7.875 L 25.375 -7.375 L 26.03125 -6.375 L 25.921875 -5.4375 L 25.984375 -2.34375 L 25.875 -1.390625 L 25.421875 -0.453125 L 24.375 0.046875 L 23.4375 0.15625 L 20.390625 -0.046875 L 17.34375 0.09375 L 16.453125 -0.046875 L 5.1875 0.046875 L 4.234375 -0.5 Z M 3.59375 -1.453125 "/></g></g></g></g></g></g><g clip-path="url(#a4e55a3645)"><g transform="matrix(1, 0, 0, 1, 145, 0)"><g clip-path="url(#a065f7b9fe)"><g fill="#ff000a" fill-opacity="1"><g transform="translate(0.980708, 47.787723)"><g><path d="M 12.671875 0.546875 L 11.671875 0.25 L 10.78125 0.25 L 9.671875 -0.203125 L 8.78125 -0.40625 L 6.9375 -1.09375 L 4.640625 -2.84375 L 3.84375 -3.59375 L 2.25 -6.1875 L 1.546875 -7.984375 L 1.25 -8.984375 L 1.140625 -9.984375 L 1.203125 -11.46875 L 1.046875 -12.921875 L 1.09375 -14.671875 L 1.59375 -15.609375 L 2.6875 -16.0625 L 3.796875 -16.0625 L 4.796875 -16.171875 L 7.9375 -16.0625 L 9.03125 -15.671875 L 9.578125 -14.765625 L 9.484375 -13.875 L 9.53125 -11.625 L 9.828125 -10.078125 L 10.171875 -9.234375 L 10.875 -8.578125 L 11.78125 -8.078125 L 12.765625 -7.734375 L 14.171875 -7.4375 L 15.609375 -7.578125 L 17.359375 -8.4375 L 17.90625 -9.125 L 18.3125 -10.125 L 18.515625 -25.4375 L 17.953125 -26.390625 L 16.90625 -26.9375 L 15.359375 -26.84375 L 13.921875 -26.84375 L 12.96875 -26.984375 L 11.828125 -27.484375 L 11.46875 -28.53125 L 11.375 -29.53125 L 11.46875 -30.328125 L 11.421875 -31.53125 L 11.46875 -32.484375 L 11.375 -33.53125 L 11.921875 -34.375 L 12.96875 -34.828125 L 14.015625 -34.828125 L 15.515625 -35.078125 L 16.96875 -34.828125 L 18.0625 -34.96875 L 22.046875 -34.828125 L 23.09375 -34.921875 L 25.59375 -34.875 L 27.140625 -34.46875 L 27.640625 -33.46875 L 27.734375 -25.546875 L 27.59375 -24.640625 L 27.6875 -11.421875 L 27.4375 -8.984375 L 26.796875 -6.828125 L 25.9375 -5.140625 L 23.953125 -2.9375 L 23.09375 -2.34375 L 22.40625 -1.75 L 19.609375 -0.453125 L 18.703125 0.09375 L 16.71875 0.40625 L 15.609375 0.40625 L 14.21875 0.546875 Z M 12.671875 0.546875 "/></g></g></g><g fill="#ff000a" fill-opacity="1"><g transform="translate(30.413326, 47.787723)"><g><path d="M 0.65625 -1.34375 L 1.25 -3.4375 L 1.703125 -4.4375 L 2.296875 -5.234375 L 3.734375 -8.875 L 5.140625 -11.46875 L 5.484375 -12.46875 L 5.9375 -13.265625 L 6.234375 -14.3125 L 6.9375 -15.609375 L 7.28125 -16.5625 L 8.03125 -17.859375 L 8.828125 -19.65625 L 9.375 -20.5625 L 9.625 -21.40625 L 12.421875 -27.6875 L 12.96875 -28.59375 L 15.109375 -33.078125 L 15.421875 -33.96875 L 16.359375 -34.875 L 17.953125 -35.375 L 19.65625 -34.921875 L 20.5625 -33.96875 L 20.859375 -33.03125 L 21.296875 -32.28125 L 22.09375 -30.390625 L 23.09375 -28.53125 L 23.84375 -26.796875 L 24.09375 -26 L 25 -24.09375 L 25.296875 -23.15625 L 26.296875 -21.40625 L 26.546875 -20.453125 L 27.046875 -19.609375 L 27.4375 -18.765625 L 27.984375 -17.859375 L 28.28125 -16.859375 L 28.734375 -16.109375 L 29.09375 -15.109375 L 29.53125 -14.265625 L 29.9375 -13.265625 L 30.484375 -12.46875 L 31.1875 -10.625 L 31.6875 -9.78125 L 32.03125 -8.828125 L 32.875 -7.03125 L 33.171875 -6.09375 L 33.671875 -5.34375 L 33.96875 -4.34375 L 34.625 -3.5 L 34.96875 -2.59375 L 35.265625 -1.34375 L 35.078125 -0.296875 L 34.171875 0 L 31.078125 0.09375 L 29.328125 -0.046875 L 28.4375 0.046875 L 27.140625 -0.453125 L 26.296875 -1.25 L 25.75 -2.140625 L 25.5 -3.046875 L 24.453125 -3.84375 L 22.796875 -4.390625 L 20.453125 -4.296875 L 19.40625 -4.390625 L 18.515625 -4.390625 L 17.359375 -4.234375 L 16.3125 -4.390625 L 13.515625 -4.34375 L 12.515625 -4.4375 L 11.328125 -3.9375 L 10.484375 -3 L 9.625 -1.296875 L 8.734375 -0.40625 L 7.578125 0.09375 L 6.28125 -0.046875 L 1.890625 -0.046875 L 0.890625 -0.296875 Z M 16.0625 -12.328125 L 19.953125 -12.375 L 20.796875 -12.765625 L 20.90625 -13.671875 L 20.5625 -14.5625 L 20.0625 -15.5625 L 19.859375 -16.359375 L 19.3125 -17.21875 L 18.65625 -19.15625 L 18.0625 -19.5625 L 17.40625 -19.0625 L 16.96875 -18.265625 L 14.96875 -13.71875 L 15.109375 -12.71875 Z M 16.0625 -12.328125 "/></g></g></g><g fill="#ff000a" fill-opacity="1"><g transform="translate(64.585095, 47.787723)"><g><path d="M 18.65625 0.59375 L 17.609375 0.5 L 15.8125 0.09375 L 14.71875 0 L 13.265625 -0.5 L 9.375 -2.5 L 7.734375 -3.796875 L 7.1875 -4.4375 L 6.4375 -5.140625 L 5.78125 -5.9375 L 5.1875 -6.53125 L 2.890625 -11.078125 L 2.4375 -12.96875 L 2.34375 -13.921875 L 2.09375 -14.8125 L 1.953125 -15.859375 L 2.09375 -19.90625 L 2.9375 -23.75 L 3.6875 -25.640625 L 5.234375 -28.28125 L 7.6875 -31.125 L 9.375 -32.375 L 10.28125 -32.828125 L 11.03125 -33.375 L 14.765625 -34.78125 L 20.0625 -35.515625 L 21.40625 -35.46875 L 24.296875 -34.96875 L 28.140625 -33.78125 L 28.890625 -33.234375 L 30.390625 -32.578125 L 31.53125 -31.78125 L 32.984375 -30.53125 L 34.375 -28.984375 L 35.46875 -27.484375 L 36.421875 -25.640625 L 37.671875 -21.90625 L 38.015625 -19.859375 L 38.171875 -17.359375 L 37.96875 -15.921875 L 37.921875 -14.875 L 37.671875 -13.875 L 37.625 -12.96875 L 37.21875 -11.078125 L 36.46875 -9.1875 L 34.28125 -5.84375 L 33.578125 -5.140625 L 32.921875 -4.234375 L 31.53125 -3.046875 L 30.578125 -2.59375 L 29.828125 -2 L 28.1875 -1.09375 L 24.453125 0.15625 L 21.453125 0.546875 Z M 21.453125 -8.234375 L 22.453125 -8.4375 L 23.203125 -8.78125 L 24.09375 -9.03125 L 26.484375 -10.671875 L 27.1875 -11.46875 L 27.484375 -12.21875 L 28.03125 -13.125 L 28.390625 -14.015625 L 28.78125 -15.859375 L 28.890625 -18.90625 L 28.734375 -19.8125 L 28.28125 -20.75 L 27.6875 -22.65625 L 25.75 -24.703125 L 24.203125 -25.796875 L 23.296875 -26.1875 L 22.40625 -26.390625 L 20 -26.6875 L 18.609375 -26.59375 L 16.65625 -26.09375 L 16.015625 -25.84375 L 13.515625 -24.140625 L 12.328125 -22.546875 L 12.03125 -21.65625 L 11.625 -20.75 L 11.46875 -19.8125 L 11.21875 -18.90625 L 11.21875 -15.859375 L 11.625 -14.015625 L 12.078125 -13.125 L 12.328125 -12.328125 L 13.015625 -11.375 L 13.671875 -10.671875 L 15.015625 -9.578125 L 15.8125 -9.125 L 17.609375 -8.375 L 18.703125 -8.234375 Z M 21.453125 -8.234375 "/></g></g></g></g></g></g></g></g></svg>