<svg xmlns="http://www.w3.org/2000/svg" xmlns:xlink="http://www.w3.org/1999/xlink" width="400" zoomAndPan="magnify" viewBox="0 0 300 74.999997" height="100" preserveAspectRatio="xMidYMid meet" version="1.0"><defs><g/><clipPath id="97a1a4905f"><rect x="0" width="104" y="0" height="63"/></clipPath><clipPath id="24a95f47bc"><path d="M 131 12 L 227.960938 12 L 227.960938 75 L 131 75 Z M 131 12 " clip-rule="nonzero"/></clipPath><clipPath id="c1201df947"><path d="M 53 21 L 96.960938 21 L 96.960938 62 L 53 62 Z M 53 21 " clip-rule="nonzero"/></clipPath><clipPath id="69eac533bb"><rect x="0" width="97" y="0" height="63"/></clipPath><clipPath id="d559761d48"><path d="M 10 0 L 51 0 L 51 74 L 10 74 Z M 10 0 " clip-rule="nonzero"/></clipPath><clipPath id="3075f60bdf"><path d="M 32.292969 -6.65625 L 63.503906 8.0625 L 30.460938 78.132812 L -0.75 63.414062 Z M 32.292969 -6.65625 " clip-rule="nonzero"/></clipPath><clipPath id="2ba2e60a5f"><path d="M 32.292969 -6.65625 L 63.503906 8.0625 L 30.460938 78.132812 L -0.75 63.414062 Z M 32.292969 -6.65625 " clip-rule="nonzero"/></clipPath><clipPath id="0b9ec3fe96"><rect x="0" width="228" y="0" height="75"/></clipPath></defs><g transform="matrix(1, 0, 0, 1, 37, -0.000000000000001893)"><g clip-path="url(#0b9ec3fe96)"><g transform="matrix(1, 0, 0, 1, 25, 12)"><g clip-path="url(#97a1a4905f)"><g fill="#05b1f2" fill-opacity="1"><g transform="translate(1.596267, 61.294005)"><g><path d="M 21.4375 -8.15625 C 19.664062 -5.769531 17.828125 -4.269531 15.921875 -3.65625 C 14.859375 -3.25 13.796875 -3.046875 12.734375 -3.046875 C 10.972656 -3.046875 9.207031 -3.515625 7.4375 -4.453125 C 4.820312 -5.859375 3.03125 -8.203125 2.0625 -11.484375 C 1.257812 -13.910156 1.257812 -16.609375 2.0625 -19.578125 C 2.8125 -22.671875 4.25 -25.148438 6.375 -27.015625 C 8.5 -28.828125 11 -29.734375 13.875 -29.734375 C 18.207031 -29.859375 21.523438 -28.21875 23.828125 -24.8125 C 25.242188 -26.457031 26.921875 -27.28125 28.859375 -27.28125 C 30.859375 -27.28125 32.539062 -26.660156 33.90625 -25.421875 L 33.171875 -28.328125 L 33.109375 -31.453125 L -0.390625 -31.453125 L -0.390625 -38.359375 L 43.53125 -38.359375 L 43.53125 -31.453125 L 40.21875 -31.453125 L 40.21875 0.265625 L 33.3125 0.265625 L 33.3125 -13.671875 C 33.21875 -14.867188 32.972656 -15.992188 32.578125 -17.046875 C 31.828125 -18.816406 30.941406 -19.726562 29.921875 -19.78125 C 29.210938 -19.820312 28.726562 -19.664062 28.46875 -19.3125 C 27.675781 -18.5625 27.28125 -16.878906 27.28125 -14.265625 L 20.3125 -14.140625 C 20.3125 -15.992188 19.976562 -17.628906 19.3125 -19.046875 C 18.207031 -21.566406 16.394531 -22.828125 13.875 -22.828125 C 11.21875 -22.828125 9.488281 -21.191406 8.6875 -17.921875 C 8.289062 -16.328125 8.269531 -14.953125 8.625 -13.796875 C 9.019531 -12.160156 9.726562 -11.078125 10.75 -10.546875 C 11.8125 -9.972656 12.71875 -9.820312 13.46875 -10.09375 C 14.53125 -10.570312 15.570312 -11.742188 16.59375 -13.609375 Z M 21.4375 -8.15625 "/></g></g></g><g fill="#05b1f2" fill-opacity="1"><g transform="translate(43.127429, 61.294005)"><g><path d="M -0.53125 -38.359375 L 18.90625 -38.359375 L 18.90625 -31.453125 L 15.59375 -31.453125 C 11.789062 -27.023438 9.46875 -22.535156 8.625 -17.984375 C 8.445312 -16.878906 8.359375 -15.863281 8.359375 -14.9375 C 8.359375 -11.789062 9.265625 -9.421875 11.078125 -7.828125 C 11.960938 -6.984375 13.398438 -6.5625 15.390625 -6.5625 C 16.410156 -6.5625 17.5625 -6.675781 18.84375 -6.90625 L 17.1875 0.265625 C 17.1875 0.265625 17.164062 0.265625 17.125 0.265625 L 16.859375 0.265625 C 16.804688 0.265625 16.78125 0.265625 16.78125 0.265625 C 16.738281 0.265625 16.71875 0.265625 16.71875 0.265625 L 16.265625 0.265625 C 16.265625 0.265625 16.238281 0.265625 16.1875 0.265625 L 16.0625 0.265625 C 16.0625 0.265625 16.039062 0.265625 16 0.265625 L 15.859375 0.265625 C 15.859375 0.265625 15.835938 0.265625 15.796875 0.265625 L 15.734375 0.265625 C 15.734375 0.265625 15.707031 0.265625 15.65625 0.265625 L 14.53125 0.265625 C 11.300781 0.265625 8.582031 -0.707031 6.375 -2.65625 C 3.09375 -5.570312 1.453125 -9.597656 1.453125 -14.734375 C 1.453125 -16.097656 1.566406 -17.535156 1.796875 -19.046875 C 2.679688 -24.046875 4.335938 -28.179688 6.765625 -31.453125 L -0.53125 -31.453125 Z M -0.53125 -38.359375 "/></g></g></g><g fill="#05b1f2" fill-opacity="1"><g transform="translate(61.23939, 61.294005)"><g><path d="M 4.984375 -24.21875 C 1.441406 -26.300781 0.046875 -30.347656 0.796875 -36.359375 L 7.96875 -37.15625 C 7.082031 -33.3125 7.101562 -31.078125 8.03125 -30.453125 C 8.78125 -30.148438 9.46875 -30.128906 10.09375 -30.390625 C 11.726562 -31.316406 13.050781 -33.085938 14.0625 -35.703125 L 15.125 -38.5625 C 18.84375 -37.976562 21.609375 -36.738281 23.421875 -34.84375 C 25.503906 -32.71875 26.523438 -30.109375 26.484375 -27.015625 C 26.347656 -21.742188 24.023438 -18.003906 19.515625 -15.796875 C 23.710938 -14.734375 27.226562 -12.695312 30.0625 -9.6875 L 30.0625 -38.359375 L 41.140625 -38.359375 L 41.140625 -31.453125 L 37.03125 -31.453125 L 37.03125 0.265625 L 30.390625 0.265625 C 29.460938 -1.898438 27.738281 -3.867188 25.21875 -5.640625 C 20.082031 -8.828125 13.160156 -10.421875 4.453125 -10.421875 L 1.796875 -17.984375 C 3.691406 -18.066406 5.039062 -18.175781 5.84375 -18.3125 C 10 -18.84375 13.382812 -19.953125 16 -21.640625 C 18.289062 -23.398438 19.460938 -25.253906 19.515625 -27.203125 C 19.554688 -28.710938 19.351562 -29.597656 18.90625 -29.859375 C 17.757812 -27.472656 15.769531 -25.523438 12.9375 -24.015625 C 10.375 -22.910156 7.722656 -22.976562 4.984375 -24.21875 Z M 4.984375 -24.21875 "/></g></g></g></g></g><g clip-path="url(#24a95f47bc)"><g transform="matrix(1, 0, 0, 1, 131, 12)"><g clip-path="url(#69eac533bb)"><g fill="#ff000a" fill-opacity="1"><g transform="translate(2.289689, 61.294011)"><g><path d="M 27.9375 -9.15625 L 27.9375 -31.46875 L 17.125 -31.46875 C 19.289062 -30.132812 21.703125 -28.140625 24.359375 -25.484375 L 25.21875 -19.90625 C 20.21875 -18.757812 16.59375 -17.523438 14.34375 -16.203125 C 19.695312 -14.828125 24.226562 -12.476562 27.9375 -9.15625 Z M 38.625 -38.359375 L 38.625 -31.46875 L 34.90625 -31.46875 L 34.90625 0.265625 L 28.734375 0.265625 C 22.367188 -7.078125 14.335938 -10.660156 4.640625 -10.484375 L 1.125 -16.265625 C 6.925781 -20.066406 11.992188 -22.695312 16.328125 -24.15625 C 12.117188 -27.164062 6.921875 -28.828125 0.734375 -29.140625 L 1.1875 -31.46875 L -0.921875 -31.46875 L -0.921875 -38.359375 Z M 38.625 -38.359375 "/></g></g></g><g fill="#ff000a" fill-opacity="1"><g transform="translate(40.117736, 61.294011)"><g><path d="M -1 -38.359375 L 14.609375 -38.359375 L 14.609375 -31.46875 L 10.28125 -31.46875 L 10.28125 0.265625 L 3.3125 0.265625 L 3.3125 -31.46875 L -1 -31.46875 Z M -1 -38.359375 "/></g></g></g><g clip-path="url(#c1201df947)"><g fill="#ff000a" fill-opacity="1"><g transform="translate(52.129585, 61.294011)"><g><path d="M 38.234375 -20.046875 C 40.617188 -19.242188 42.210938 -17.492188 43.015625 -14.796875 C 43.722656 -10.640625 42.613281 -7.144531 39.6875 -4.3125 C 36.5 -1.257812 32.316406 0.265625 27.140625 0.265625 C 26.484375 0.265625 25.625 0.195312 24.5625 0.0625 C 20.269531 -0.414062 15.46875 -2.738281 10.15625 -6.90625 C 5.90625 -11.101562 2.851562 -16.4375 1 -22.90625 L 7.171875 -27.015625 C 8.410156 -21.085938 10.753906 -16.304688 14.203125 -12.671875 C 17.609375 -9.398438 21.4375 -7.457031 25.6875 -6.84375 C 29.363281 -6.175781 32.347656 -6.90625 34.640625 -9.03125 C 35.878906 -10.351562 36.367188 -11.566406 36.109375 -12.671875 C 35.710938 -14.316406 34.40625 -15.25 32.1875 -15.46875 C 32.144531 -15.425781 31.660156 -15.25 30.734375 -14.9375 L 28.203125 -20.578125 C 32.234375 -22.660156 34.359375 -24.828125 34.578125 -27.078125 C 34.710938 -28.585938 34.269531 -29.695312 33.25 -30.40625 C 31.53125 -31.550781 29.097656 -31.523438 25.953125 -30.328125 C 22.679688 -29.140625 20.710938 -27.4375 20.046875 -25.21875 C 19.691406 -24.15625 19.644531 -23.425781 19.90625 -23.03125 C 20.394531 -22.363281 21.859375 -22.078125 24.296875 -22.171875 L 22.828125 -15.140625 C 18.804688 -15.535156 16 -16.769531 14.40625 -18.84375 C 12.675781 -21.0625 12.34375 -23.875 13.40625 -27.28125 C 14.78125 -31.65625 18.164062 -34.796875 23.5625 -36.703125 C 28.914062 -38.785156 33.453125 -38.609375 37.171875 -36.171875 C 40.441406 -33.921875 41.878906 -30.691406 41.484375 -26.484375 C 41.347656 -24.316406 40.265625 -22.171875 38.234375 -20.046875 Z M 38.234375 -20.046875 "/></g></g></g></g></g></g></g><g clip-path="url(#d559761d48)"><g clip-path="url(#3075f60bdf)"><g clip-path="url(#2ba2e60a5f)"><path fill="#05b1f2" d="M 22.035156 71.386719 C 12.390625 40.457031 45.492188 46.695312 50.726562 18.046875 C 49.214844 21.71875 46.707031 24.550781 43.667969 26.992188 C 49.648438 19.550781 51.355469 8.644531 46.644531 0.148438 C 53.714844 15.71875 34.648438 21.859375 23.996094 27.320312 C 17.851562 30.394531 14.191406 36.128906 13.101562 42.871094 C 12.777344 39.929688 13.277344 37.171875 14.390625 34.492188 C 9.003906 42.730469 8.542969 53.425781 15.488281 61.292969 C 16.847656 62.832031 19.550781 70.199219 20.382812 72.382812 C 20.976562 73.949219 22.78125 72.664062 22.035156 71.386719 Z M 18.574219 65.5625 C 12.859375 52.15625 20.105469 36.792969 31.503906 28.925781 C 35.871094 25.835938 40.769531 22.402344 44.367188 18.59375 C 39.464844 24.308594 32.542969 28.328125 27.453125 33.929688 C 19.925781 42.222656 15.742188 54.222656 19.578125 64.996094 C 20.144531 66.597656 19.023438 66.59375 18.574219 65.5625 Z M 18.574219 65.5625 " fill-opacity="1" fill-rule="nonzero"/></g></g></g></g></g></svg>